<mxfile host="app.diagrams.net" agent="Mozilla/5.0 (Windows NT 10.0; Win64; x64) AppleWebKit/537.36 (KHTML, like Gecko) Chrome/140.0.0.0 Safari/537.36 Edg/140.0.0.0" version="28.2.0">
  <diagram name="Page-1" id="qvojYX700zjDLkyBCcWP">
    <mxGraphModel dx="1017" dy="460" grid="1" gridSize="10" guides="1" tooltips="1" connect="1" arrows="1" fold="1" page="1" pageScale="1" pageWidth="827" pageHeight="1169" math="0" shadow="0">
      <root>
        <mxCell id="0" />
        <mxCell id="1" parent="0" />
        <mxCell id="lhfclfMq8V6bUY2u5FKq-40" value="" style="edgeStyle=orthogonalEdgeStyle;rounded=0;orthogonalLoop=1;jettySize=auto;html=1;" parent="1" source="lhfclfMq8V6bUY2u5FKq-3" target="lhfclfMq8V6bUY2u5FKq-22" edge="1">
          <mxGeometry relative="1" as="geometry" />
        </mxCell>
        <mxCell id="lhfclfMq8V6bUY2u5FKq-3" value="Actor" style="shape=umlActor;verticalLabelPosition=bottom;verticalAlign=top;html=1;outlineConnect=0;" parent="1" vertex="1">
          <mxGeometry x="220" y="524" width="30" height="60" as="geometry" />
        </mxCell>
        <mxCell id="lhfclfMq8V6bUY2u5FKq-4" value="" style="rounded=0;whiteSpace=wrap;html=1;" parent="1" vertex="1">
          <mxGeometry x="320" y="40" width="320" height="1090" as="geometry" />
        </mxCell>
        <mxCell id="lhfclfMq8V6bUY2u5FKq-6" value="図書館の図書貸出システム" style="text;html=1;align=center;verticalAlign=middle;whiteSpace=wrap;rounded=0;" parent="1" vertex="1">
          <mxGeometry x="405" y="40" width="150" height="30" as="geometry" />
        </mxCell>
        <mxCell id="lhfclfMq8V6bUY2u5FKq-7" value="作成" style="rounded=0;whiteSpace=wrap;html=1;" parent="1" vertex="1">
          <mxGeometry x="340" y="100" width="56" height="40" as="geometry" />
        </mxCell>
        <mxCell id="lhfclfMq8V6bUY2u5FKq-10" value="" style="endArrow=classic;html=1;rounded=0;exitX=1;exitY=0.5;exitDx=0;exitDy=0;entryX=-0.003;entryY=0.385;entryDx=0;entryDy=0;entryPerimeter=0;" parent="1" source="lhfclfMq8V6bUY2u5FKq-7" target="lhfclfMq8V6bUY2u5FKq-11" edge="1">
          <mxGeometry width="50" height="50" relative="1" as="geometry">
            <mxPoint x="450" y="300" as="sourcePoint" />
            <mxPoint x="500" y="250" as="targetPoint" />
          </mxGeometry>
        </mxCell>
        <mxCell id="lhfclfMq8V6bUY2u5FKq-11" value="図書カード&lt;div&gt;&lt;br&gt;&lt;div&gt;ID&lt;/div&gt;&lt;div&gt;パスワード&lt;/div&gt;&lt;/div&gt;&lt;div&gt;氏名&lt;/div&gt;&lt;div&gt;住所&lt;/div&gt;&lt;div&gt;電話番号&lt;/div&gt;&lt;div&gt;メールアドレス&lt;/div&gt;" style="rounded=0;whiteSpace=wrap;html=1;" parent="1" vertex="1">
          <mxGeometry x="500" y="70" width="120" height="130" as="geometry" />
        </mxCell>
        <mxCell id="lhfclfMq8V6bUY2u5FKq-25" value="" style="edgeStyle=orthogonalEdgeStyle;rounded=0;orthogonalLoop=1;jettySize=auto;html=1;" parent="1" source="lhfclfMq8V6bUY2u5FKq-12" target="lhfclfMq8V6bUY2u5FKq-13" edge="1">
          <mxGeometry relative="1" as="geometry" />
        </mxCell>
        <mxCell id="lhfclfMq8V6bUY2u5FKq-12" value="検索" style="rounded=0;whiteSpace=wrap;html=1;" parent="1" vertex="1">
          <mxGeometry x="340" y="260" width="56" height="40" as="geometry" />
        </mxCell>
        <mxCell id="lhfclfMq8V6bUY2u5FKq-13" value="書名、著者等を検索キーとして検索可能&lt;div&gt;&lt;br&gt;&lt;/div&gt;&lt;div&gt;貸出中か、どこの棚にあるか確認できる&lt;/div&gt;" style="rounded=0;whiteSpace=wrap;html=1;" parent="1" vertex="1">
          <mxGeometry x="500" y="220" width="120" height="130" as="geometry" />
        </mxCell>
        <mxCell id="lhfclfMq8V6bUY2u5FKq-15" value="借りる" style="rounded=0;whiteSpace=wrap;html=1;" parent="1" vertex="1">
          <mxGeometry x="340" y="420" width="56" height="40" as="geometry" />
        </mxCell>
        <mxCell id="lhfclfMq8V6bUY2u5FKq-16" value="返却時間を記したシールが発行されるので、それまでに返却する" style="rounded=0;whiteSpace=wrap;html=1;" parent="1" vertex="1">
          <mxGeometry x="500" y="375" width="120" height="130" as="geometry" />
        </mxCell>
        <mxCell id="lhfclfMq8V6bUY2u5FKq-19" value="" style="endArrow=classic;html=1;rounded=0;entryX=0;entryY=0.5;entryDx=0;entryDy=0;exitX=1;exitY=0.5;exitDx=0;exitDy=0;" parent="1" source="lhfclfMq8V6bUY2u5FKq-15" target="lhfclfMq8V6bUY2u5FKq-16" edge="1">
          <mxGeometry width="50" height="50" relative="1" as="geometry">
            <mxPoint x="340" y="490" as="sourcePoint" />
            <mxPoint x="390" y="440" as="targetPoint" />
          </mxGeometry>
        </mxCell>
        <mxCell id="lhfclfMq8V6bUY2u5FKq-24" value="" style="edgeStyle=orthogonalEdgeStyle;rounded=0;orthogonalLoop=1;jettySize=auto;html=1;" parent="1" source="lhfclfMq8V6bUY2u5FKq-22" target="lhfclfMq8V6bUY2u5FKq-23" edge="1">
          <mxGeometry relative="1" as="geometry" />
        </mxCell>
        <mxCell id="lhfclfMq8V6bUY2u5FKq-22" value="予約" style="rounded=0;whiteSpace=wrap;html=1;" parent="1" vertex="1">
          <mxGeometry x="340" y="584.5" width="56" height="40" as="geometry" />
        </mxCell>
        <mxCell id="lhfclfMq8V6bUY2u5FKq-23" value="借りたい本がなかった際には、予約カードに必要事項を記入し、貸出可能になったときに、連絡をうける" style="rounded=0;whiteSpace=wrap;html=1;" parent="1" vertex="1">
          <mxGeometry x="500" y="539.5" width="120" height="130" as="geometry" />
        </mxCell>
        <mxCell id="lhfclfMq8V6bUY2u5FKq-29" value="" style="edgeStyle=orthogonalEdgeStyle;rounded=0;orthogonalLoop=1;jettySize=auto;html=1;" parent="1" source="lhfclfMq8V6bUY2u5FKq-27" target="lhfclfMq8V6bUY2u5FKq-28" edge="1">
          <mxGeometry relative="1" as="geometry" />
        </mxCell>
        <mxCell id="lhfclfMq8V6bUY2u5FKq-27" value="確認" style="rounded=0;whiteSpace=wrap;html=1;" parent="1" vertex="1">
          <mxGeometry x="340" y="750" width="56" height="40" as="geometry" />
        </mxCell>
        <mxCell id="lhfclfMq8V6bUY2u5FKq-28" value="自身の借りている本の一覧と、あと何冊借りることができるのか確認" style="rounded=0;whiteSpace=wrap;html=1;" parent="1" vertex="1">
          <mxGeometry x="500" y="705" width="120" height="130" as="geometry" />
        </mxCell>
        <mxCell id="lhfclfMq8V6bUY2u5FKq-33" value="" style="edgeStyle=orthogonalEdgeStyle;rounded=0;orthogonalLoop=1;jettySize=auto;html=1;exitX=0.5;exitY=1;exitDx=0;exitDy=0;" parent="1" source="lhfclfMq8V6bUY2u5FKq-28" target="lhfclfMq8V6bUY2u5FKq-34" edge="1">
          <mxGeometry relative="1" as="geometry">
            <mxPoint x="396" y="940" as="sourcePoint" />
            <mxPoint x="500" y="950" as="targetPoint" />
          </mxGeometry>
        </mxCell>
        <mxCell id="lhfclfMq8V6bUY2u5FKq-34" value="一覧では、書名、著者名、貸出期限が表示" style="rounded=0;whiteSpace=wrap;html=1;" parent="1" vertex="1">
          <mxGeometry x="500" y="870" width="120" height="100" as="geometry" />
        </mxCell>
        <mxCell id="lhfclfMq8V6bUY2u5FKq-37" value="" style="edgeStyle=orthogonalEdgeStyle;rounded=0;orthogonalLoop=1;jettySize=auto;html=1;" parent="1" source="lhfclfMq8V6bUY2u5FKq-35" target="lhfclfMq8V6bUY2u5FKq-36" edge="1">
          <mxGeometry relative="1" as="geometry" />
        </mxCell>
        <mxCell id="lhfclfMq8V6bUY2u5FKq-35" value="取り消し" style="rounded=0;whiteSpace=wrap;html=1;" parent="1" vertex="1">
          <mxGeometry x="340" y="1030" width="56" height="40" as="geometry" />
        </mxCell>
        <mxCell id="lhfclfMq8V6bUY2u5FKq-36" value="返却期間を大幅に過ぎ、催促にも返事がない場合、図書カードの発行を取り消す" style="rounded=0;whiteSpace=wrap;html=1;" parent="1" vertex="1">
          <mxGeometry x="500" y="985" width="120" height="130" as="geometry" />
        </mxCell>
        <mxCell id="lhfclfMq8V6bUY2u5FKq-41" value="利用者" style="text;html=1;align=center;verticalAlign=middle;whiteSpace=wrap;rounded=0;" parent="1" vertex="1">
          <mxGeometry x="205" y="490" width="60" height="30" as="geometry" />
        </mxCell>
      </root>
    </mxGraphModel>
  </diagram>
</mxfile>
